<?xml version="1.0" standalone="no"?><!DOCTYPE svg PUBLIC "-//W3C//DTD SVG 1.1//EN" "http://www.w3.org/Graphics/SVG/1.1/DTD/svg11.dtd"><svg class="icon" viewBox="0 0 1429 1024" version="1.1" xmlns="http://www.w3.org/2000/svg" width="279.1015625" height="200"><defs><style type="text/css"> </style></defs><path d="M784.248967 0.731429c-14.290989 0-28.581978 3.803429-41.41011 11.117714-0.877714 0.585143-1.744176 0.877714-2.329319 1.462857L448.557011 215.771429H213.779692C95.963429 215.771429 0 312.027429 0 430.226286v162.669714c0 118.198857 95.952176 214.454857 213.779692 214.454857H460.237363l279.698285 202.459429c0.877714 0.585143 2.036747 1.462857 2.925715 2.048a82.145055 82.145055 0 0 0 41.41011 11.117714 82.291341 82.291341 0 0 0 57.445274-23.113143 82.201319 82.201319 0 0 0 25.374945-59.684571V83.821714c0-45.933714-37.032791-83.090286-82.820219-83.090285z m11.376528 939.154285c0 3.218286-1.159033 5.851429-3.207033 8.192a11.792879 11.792879 0 0 1-7.876924 3.218286c-1.462857 0-2.914462-0.292571-4.366065-0.877714L493.185407 742.4a35.918769 35.918769 0 0 0-20.997627-6.729143H213.779692c-78.454154 0-142.324747-64.073143-142.324747-142.774857V430.226286c0-78.701714 63.870593-142.774857 142.324747-142.774857h245.872528a36.683956 36.683956 0 0 0 20.412483-6.436572L779.59033 73.289143a9.216 9.216 0 0 1 4.658637-1.170286c4.66989 0 11.376527 3.510857 11.376528 11.410286v856.356571z m622.096879-643.364571a36.29011 36.29011 0 0 1 0 50.614857l-164.200088 164.717714 164.78523 164.717715a35.749978 35.749978 0 0 1 0 50.614857 35.468659 35.468659 0 0 1-25.374945 10.532571c-9.33978 0-18.375736-3.510857-25.374945-10.532571L1203.368791 562.468571 1039.157451 727.186286a35.468659 35.468659 0 0 1-25.374946 10.532571c-9.33978 0-18.375736-3.510857-25.374945-10.532571a35.749978 35.749978 0 0 1 0-50.614857l164.200088-164.717715-164.200088-164.717714a35.749978 35.749978 0 0 1 0-50.614857 35.479912 35.479912 0 0 1 50.457319 0l164.200088 164.717714 164.200088-164.717714a35.479912 35.479912 0 0 1 50.457319 0z" fill="#20A0FF"> </path></svg>